:SAMPLES-PER-SECOND 30
:FULLY-SPECIFIED
:DEGREES
146
root  -66.2114 41.6148 -0.137234 164.366 -87.2892 -163.359
RightUpLeg  -4.25361 -6.90177 -4.62171
RightLeg  1.69356 -2.49594 3.15206
RightFoot  2.46307 -0.0255842 0.354871
RightToes  0.00048216 0.542163 -0.142577
Spine  5.08406 0.589798 3.9891
Spine1  -3.22064 1.40451 -4.715
HEad  -6.10737 0.843695 1.73157
LeftShoulder1  0.320169 0.395918 -2.016
LeftArm  -17.4571 5.00591 -2.76305
LeftForeArm  6.52367 0.847053 -2.07147
LeftHand  -0.25398 0.0180481 5.50724
RightShoulder  0.32293 -1.02267 5.20897
RightArm  -20.4714 1.28515 -3.3955
RightForeArm  -9.5053 -2.4793 3.55337
RightHand  -1.74634 5.96026 -18.1125
LeftUpLeg  -3.05395 5.57206 3.04171
LeftLeg  4.53979 12.4485 -3.71944
LeftFoot  -3.20371 -0.122104 1.96956
LeftToes  1.06248e-005 4.65856e-005 -8.185e-006
147
root  -66.2087 41.616 -0.19061 164.135 -87.1982 -163.106
RightUpLeg  -4.24838 -6.83744 -4.49707
RightLeg  1.6112 -2.4965 3.18018
RightFoot  2.47672 -0.0182509 0.309814
RightToes  0.00048216 0.542163 -0.142577
Spine  5.28836 0.554079 4.08507
Spine1  -3.24987 1.38905 -4.79753
HEad  -5.99034 0.87513 1.69503
LeftShoulder1  0.312453 0.439619 -1.89296
LeftArm  -18.1073 5.15108 -2.59105
LeftForeArm  6.39516 0.805757 -1.783
LeftHand  -0.25398 0.0180481 5.50724
RightShoulder  0.309627 -1.10507 5.08825
RightArm  -20.8002 1.28054 -3.5172
RightForeArm  -9.34753 -2.16974 3.46997
RightHand  -1.77803 6.06506 -18.2678
LeftUpLeg  -3.09554 5.56024 3.12213
LeftLeg  4.5901 12.5376 -3.60626
LeftFoot  -3.23119 -0.113719 1.8313
LeftToes  1.06248e-005 4.65856e-005 -8.185e-006
148
root  -66.2081 41.6189 -0.240511 164.651 -87.1173 -163.541
RightUpLeg  -4.33987 -6.78326 -4.40005
RightLeg  1.58875 -2.49104 3.19665
RightFoot  2.4977 -0.00486597 0.186551
RightToes  0.00048216 0.542163 -0.142577
Spine  5.36567 0.480288 4.0404
Spine1  -3.19551 1.32355 -4.83069
HEad  -5.91822 0.954671 1.72489
LeftShoulder1  0.264965 0.794311 -1.39418
LeftArm  -18.7635 5.20332 -2.80378
LeftForeArm  6.60762 0.373655 -1.5634
LeftHand  -0.25398 0.0180481 5.50724
RightShoulder  0.320412 -1.05032 5.2542
RightArm  -21.1788 1.56519 -3.79372
RightForeArm  -9.29533 -2.13406 3.38142
RightHand  -1.81339 6.19743 -18.4157
LeftUpLeg  -3.12223 5.51136 3.15843
LeftLeg  4.47789 12.6609 -3.5335
LeftFoot  -3.17891 -0.10551 1.68481
LeftToes  1.06248e-005 4.65856e-005 -8.185e-006
149
root  -66.2054 41.6235 -0.298101 166.009 -87.1311 -164.761
RightUpLeg  -4.52703 -6.72367 -4.34027
RightLeg  1.6488 -2.56327 3.16487
RightFoot  2.4639 0.00417032 0.104042
RightToes  0.00048216 0.542163 -0.142577
Spine  5.34638 0.399514 3.82967
Spine1  -3.08535 1.24342 -4.83781
HEad  -5.76289 1.09634 1.86808
LeftShoulder1  0.21741 1.13542 -0.725672
LeftArm  -19.1573 5.24971 -3.11571
LeftForeArm  6.98979 -0.149129 -1.46992
LeftHand  -0.25398 0.0180481 5.50724
RightShoulder  0.343765 -0.926808 5.57641
RightArm  -20.9666 1.78354 -4.15285
RightForeArm  -9.64825 -2.03152 3.52275
RightHand  -1.82733 6.22058 -18.5167
LeftUpLeg  -3.16673 5.42345 3.1383
LeftLeg  4.23058 12.7476 -3.5166
LeftFoot  -2.99153 -0.100816 1.59213
LeftToes  1.06248e-005 4.65856e-005 -8.185e-006
150
root  -66.1997 41.6277 -0.35805 167.202 -87.216 -165.818
RightUpLeg  -4.69799 -6.6901 -4.30494
RightLeg  1.70531 -2.67701 3.14966
RightFoot  2.40966 0.00725839 0.0761885
RightToes  0.00048216 0.542163 -0.142577
Spine  5.29671 0.412503 3.55078
Spine1  -2.93958 1.22276 -4.62441
HEad  -5.59428 1.14449 1.86857
LeftShoulder1  0.228217 1.00307 -0.660725
LeftArm  -19.3083 5.30264 -2.98867
LeftForeArm  7.07638 -0.460154 -1.44453
LeftHand  -0.25398 0.0180481 5.50724
RightShoulder  0.331646 -0.984517 5.37458
RightArm  -20.7839 1.72784 -4.01881
RightForeArm  -9.6215 -1.82963 3.6048
RightHand  -1.81181 6.15332 -18.4667
LeftUpLeg  -3.2452 5.36214 3.12176
LeftLeg  4.02404 12.7571 -3.52925
LeftFoot  -2.7706 -0.0993115 1.55951
LeftToes  1.06248e-005 4.65856e-005 -8.185e-006
151
root  -66.1938 41.6296 -0.406654 167.114 -87.2651 -165.605
RightUpLeg  -4.81214 -6.6671 -4.23644
RightLeg  1.67217 -2.76363 3.18813
RightFoot  2.4089 0.0115411 0.0411873
RightToes  0.00048216 0.542163 -0.142577
Spine  5.29758 0.44958 3.49713
Spine1  -2.85858 1.2527 -4.5572
HEad  -5.47394 1.13851 1.86618
LeftShoulder1  0.252566 0.727735 -0.648552
LeftArm  -19.5478 5.33827 -2.97102
LeftForeArm  6.96331 -0.598193 -1.36772
LeftHand  -0.25398 0.0180481 5.50724
RightShoulder  0.318604 -1.04846 5.16325
RightArm  -20.7383 1.56104 -3.76766
RightForeArm  -9.72891 -1.64896 3.629
RightHand  -1.79531 6.05001 -18.4616
LeftUpLeg  -3.38672 5.41565 3.1963
LeftLeg  3.99728 12.6843 -3.56941
LeftFoot  -2.65894 -0.0981522 1.54149
LeftToes  1.06248e-005 4.65856e-005 -8.185e-006
